<svg id="Layer_1" data-name="Layer 1" xmlns="http://www.w3.org/2000/svg" xmlns:xlink="http://www.w3.org/1999/xlink" width="201.6" height="163.7" viewBox="0 0 201.6 163.7"><path d="M104,129.61a2,2,0,0,0,1.79,2.37c1.64.22,2.22-1.44,2.42-2.7l.41-3.08a28.81,28.81,0,0,0-3,1.06A2.85,2.85,0,0,0,104,129.61Z" transform="translate(-0.1)" fill="#f16530"/><path d="M78.22,127.48l-.81.27A1.4,1.4,0,0,0,78.22,127.48Z" transform="translate(-0.1)" fill="#f16530"/><path d="M173,74.79a1.82,1.82,0,0,0,1.44,2.29c2,.38,2.08-1.5,2.41-3.13l5.53.73c-.39,5.08-3.43,7-8.27,6.45-4-.49-7.27-2.6-6.68-7.08l1.06-8c.66-5,4.07-6.26,8.38-5.72a8.79,8.79,0,0,1,5.65,2.54V35.65H105.42l2.5,12.17.36-2.76,5.56.74L112.76,54h.07a5,5,0,0,1,4.51-1.54,4.29,4.29,0,0,1,3.85,5L119.11,73.2l-5.56-.73,1.85-13.93c.14-1.12-.06-1.72-1.36-1.89s-1.75.87-1.88,1.85l-.81,6.1,4.14,20.22,5.47.73-2.09,15.8L121.26,113l-9.54,3.21c2.6,1.07,3.44,3,3,6.09l-1.58,12a6.75,6.75,0,0,0,.16,2.23l-5.42-.72-.15-1.8c-1.61,1.35-2.91,2-5.11,1.74a4.91,4.91,0,0,1-4.42-5.92c.59-4.45,3.19-5.53,5.75-6s5-.41,5.25-2.51a1.86,1.86,0,0,0-1.48-2.26c-2-.27-2.22,1.13-2.54,2.76l-5.57-.74c0-.29.06-.56.11-.83l-6.07,2-1.51,11.43L86.59,133l1.16-8.71-2.91,1-.09.72c-.44,3.32-1.75,7-5.83,6.63a5.22,5.22,0,0,1-4.07-3.46h-.06l-.3,2.24-5.18-.68,0-.22L50.7,136.74V145h77l.54-4.11a9.9,9.9,0,0,1,1.07.28c.58.19,1.7,0,1.81-.76a18.67,18.67,0,0,0-.19-3.4l-1.53-18.26,5.6.74.21,12.92h.06L138.83,120l5.46.72L138.53,137c-1.48,3.61-2.18,6.73-4.6,8h48.61V72.56l-9.07-1.2ZM129.2,54.6l.17,12.91h.07l3.68-12.4,5.42.72-6.9,19L125.27,74,123.6,53.86Zm-8,29-5.56-.73.62-4.73,5.56.74Zm5.91,40.62a10.82,10.82,0,0,0-1.67-.36c-1.57-.2-2.24,0-2.56,1.62l-1.6,12.07-5.56-.73,2.59-19.6,5.18.69-.39,3h.07c.91-2,2.46-3.27,4.77-3Zm10.89-29-5.25-.69v-.35c0-.75.13-1.52.09-2.27a1.46,1.46,0,0,0-1.34-1.43c-1.44-.19-1.83.9-2,2.16l-1.07,8.08c-.16,1.23,0,2.33,1.49,2.52,2.06.27,2.12-2.86,2.31-4.33l5.39.72a22.91,22.91,0,0,1-1.07,4.59c-1.06,2.35-3.31,3.2-5.75,3.12-.54,0-1,0-1.87-.14-4-.53-6.68-2.53-6.09-7l1.06-8c.66-5,3.48-6.38,7.78-5.81C137.2,87.2,139.05,89.87,138,95.21Zm5.87-18.72-5.57-.74,2.6-19.6,5.56.74ZM146.74,55l-5.57-.73.63-4.73,5.56.74Zm6.87,22.81L148.05,77l3.47-26.25,5.56.74Zm9.72,1.29-5.56-.73,3.48-26.25,5.56.74Z" transform="translate(-0.1)" fill="#f16530"/><path d="M176.44,64c-1.58-.21-2.13,1-2.31,2.37L174,67.68l3.84.52.26-1.93A2,2,0,0,0,176.44,64Z" transform="translate(-0.1)" fill="#f16530"/><path d="M79.94,119.49c.16-1.15.43-3.18-1.19-3.4s-2,1.3-2.27,3.19l-.27,2.06,3.65-1.23Z" transform="translate(-0.1)" fill="#2e388f"/><path d="M93,97.79c1.79.24,2-1.91,2.17-3.16l.67-5.08c.15-1.16.42-3.19-1.19-3.4s-2,1.3-2.27,3.19L91.73,94C91.51,95.64,91.6,97.65,93,97.79Z" transform="translate(-0.1)" fill="#2e388f"/><path d="M77.34,62a2,2,0,0,0,1.79,2.37c1.64.22,2.22-1.45,2.42-2.71L82,58.59a26.44,26.44,0,0,0-3,1.07A2.85,2.85,0,0,0,77.34,62Z" transform="translate(-0.1)" fill="#2e388f"/><path d="M78.35,105.18l-1.09,8.26h.07a4.37,4.37,0,0,1,4.45-1.62c3.26.43,4.1,3.47,4,6.3l3-1,.5-3.76,5.18.69-.16,1.21,1.66-.56a3.9,3.9,0,0,1,2-.67l15.93-5.36-.87-4.27h-.1l0-.3-2.57-12.56-1.63,12.31-5.56-.74,3.48-26.25.73.1-1.12-5.48-1.37-.18.53-3.94-2.11-10.3-4.15-.55c0-1.35.29-2.71-1.49-2.94-1.09-.15-1.93.24-2.08,1.4s.67,1.69,1.45,2.22c3.39,2.12,7.15,3.58,6.53,8.24-.57,4.37-4.15,5.78-8.24,5.24-4.41-.59-7.24-2.88-6.41-7.58l5.33.71c-.26,1.35-.08,3,1.6,3.2A1.77,1.77,0,0,0,98,65.42a1.93,1.93,0,0,0-.53-1.6c-2.09-1.49-5.09-2.74-6.58-5A5.35,5.35,0,0,1,90,55c.56-4.23,4.16-5.6,8-5.09a9.11,9.11,0,0,1,4,1.45L96,21.89,7.64,54.66,26,138.25l28.35-9.55-10.68-1.41L47.14,101l6.16.82-2.78,21,7.52,1-.5,3.77,2.83-1,2.23-16.81,5.56.73L66.3,124.68l4-1.35,2.51-18.89Zm2.78-53.74c-2-.28-2.22,1.13-2.54,2.76L73,53.46c.4-4.93,3.94-6.35,8.41-5.76,5.5.73,7.27,2.67,6.7,7l-1.59,12a6.73,6.73,0,0,0,.17,2.23l-5.43-.72-.15-1.8c-1.6,1.35-2.9,2-5.11,1.74-3.15-.41-4.83-2.81-4.41-5.92.58-4.44,3.19-5.52,5.74-6s5-.42,5.25-2.51A1.84,1.84,0,0,0,81.13,51.44Zm13.08,23.8-1.1,8.26h.07a4.38,4.38,0,0,1,4.45-1.62c3.68.48,4.28,4.27,3.87,7.35L100.6,96c-.43,3.32-1.75,7-5.82,6.63a5.22,5.22,0,0,1-4.07-3.46h-.07l-.29,2.24-5.18-.68L88.64,74.5ZM55.69,38.09l6.34.84,2.81,15.3H65L66.3,39.5l5.84.77L68.67,66.52l-6.3-.84L59.52,50.35l-.08.06-1.38,14.7-5.84-.77Zm.22,48.38L54.55,96.69l-6.16-.81,3.48-26.25,7.31,1c2.39.31,5.79,1,7.24,3.17,1.22,1.79,1.24,3.79,1,5.92C67,82.53,65.92,85.63,63,86.55,60.68,87.32,58.23,86.67,55.91,86.47Zm12.51,22.2-5.57-.74.63-4.72L69,104Zm-.35-13.75,2.13-16.1,5.56.74-1.85,14c-.06.92.08,1.76,1.14,1.83A1.55,1.55,0,0,0,76.88,94l1.86-14,5.56.74-2.59,19.6-5.18-.69.32-2.41h-.07a4.61,4.61,0,0,1-4.29,2.53C69.27,99.28,67.71,97.58,68.07,94.92Z" transform="translate(-0.1)" fill="#2e388f"/><path d="M60.46,75.79a8.1,8.1,0,0,0-2.39-.53l-.67-.09-.87,6.58c1.16.12,2.47.43,3.56-.21A4,4,0,0,0,61.21,79C61.34,78,61.44,76.42,60.46,75.79Z" transform="translate(-0.1)" fill="#2e388f"/><path d="M79.27,124.57l.59-4.46-3.65,1.23-.34,2.56c-.22,1.68-.13,3.69,1.24,3.83a1.56,1.56,0,0,0,.3,0l.81-.27C79,126.89,79.15,125.49,79.27,124.57Z" transform="translate(-0.1)" fill="#231f20"/><path d="M70.28,123.33l-4,1.35-.73,5.51L60,129.45l.37-2.78-2.83,1-.19,1.48-3-.4L26,138.25,7.64,54.66,96,21.89l6,29.46a5.49,5.49,0,0,1,2.25,5.86l-1.07-.14,2.11,10.3,2.59-19.55-2.5-12.17-4.59-22.44L69,25,63.79,0,.1,50.58l0,.09,21.07,96,29.48-9.93,18.64-6.27ZM19.89,43.11,59.6,11.58l3.25,15.7Z" transform="translate(-0.1)" fill="#231f20"/><polygon points="106.07 71.49 107.19 76.97 112.02 77.61 110.17 91.55 112.75 104.11 115.3 84.81 115.39 84.82 111.25 64.6 110.27 72.04 106.07 71.49" fill="#231f20"/><path d="M112.91,104.42l.87,4.27-15.93,5.36a4.58,4.58,0,0,1,1,0L98,120.38a8.63,8.63,0,0,0-1.66-.36c-1.57-.21-2.24,0-2.56,1.62l-.09.64,6.07-2c.72-4.25,4.1-5.48,8.31-4.92a14.94,14.94,0,0,1,3.67.89l9.54-3.21-2.39-11.64-.5,3.8Z" transform="translate(-0.1)" fill="#231f20"/><path d="M94,117H94a5.49,5.49,0,0,1,1.83-2.33l-1.66.56Z" transform="translate(-0.1)" fill="#231f20"/><path d="M88.69,117.14l-3,1c0,.35,0,.71-.09,1.05l-.81,6.07,2.91-1Z" transform="translate(-0.1)" fill="#231f20"/><polygon points="19.79 43.12 62.75 27.28 59.5 11.58 19.79 43.12" fill="#ede422"/><polygon points="59.34 50.41 59.42 50.35 62.27 65.68 68.57 66.52 72.04 40.27 66.2 39.5 64.85 54.24 64.75 54.23 61.93 38.93 55.59 38.09 52.12 64.34 57.96 65.11 59.34 50.41" fill="#fff"/><path d="M77.36,56.21c-2.55.48-5.16,1.56-5.74,6-.42,3.11,1.26,5.51,4.41,5.92,2.21.3,3.51-.39,5.11-1.74l.15,1.8,5.43.72a6.73,6.73,0,0,1-.17-2.23l1.59-12c.57-4.31-1.2-6.25-6.7-7-4.47-.59-8,.83-8.41,5.76l5.56.74c.32-1.63.51-3,2.54-2.76a1.84,1.84,0,0,1,1.48,2.26C82.33,55.79,79.88,55.72,77.36,56.21Zm4.19,5.46c-.2,1.26-.78,2.93-2.42,2.71A2,2,0,0,1,77.34,62,2.85,2.85,0,0,1,79,59.66a26.44,26.44,0,0,1,3-1.07Z" transform="translate(-0.1)" fill="#fff"/><path d="M90,55a5.35,5.35,0,0,0,.91,3.86c1.49,2.23,4.49,3.48,6.58,5a1.93,1.93,0,0,1,.53,1.6A1.77,1.77,0,0,1,95.76,67c-1.68-.22-1.86-1.85-1.6-3.2l-5.33-.71c-.83,4.7,2,7,6.41,7.58,4.09.54,7.67-.87,8.24-5.24.62-4.66-3.14-6.12-6.53-8.24C96.17,56.67,95.36,56,95.5,55s1-1.55,2.08-1.4c1.78.23,1.53,1.59,1.49,2.94l4.15.55,1.07.14A5.49,5.49,0,0,0,102,51.35a9.11,9.11,0,0,0-4-1.45C94.14,49.39,90.54,50.76,90,55Z" transform="translate(-0.1)" fill="#fff"/><path d="M105.33,67.37l-.53,3.94,1.37.18,4.19.55,1-7.44.81-6.1c.13-1,.66-2,1.88-1.85s1.5.77,1.36,1.89l-1.85,13.93,5.56.73,2.08-15.71a4.29,4.29,0,0,0-3.85-5A5,5,0,0,0,112.83,54h-.07l1.08-8.19-5.56-.74-.36,2.76Z" transform="translate(-0.1)" fill="#fff"/><polygon points="131.54 74.86 138.44 55.84 133.02 55.12 129.34 67.52 129.27 67.51 129.1 54.6 123.5 53.86 125.17 74.02 131.54 74.86" fill="#fff"/><rect x="132.52" y="63.51" width="19.77" height="5.61" transform="translate(57.8 198.74) rotate(-82.43)" fill="#fff"/><rect x="141.88" y="49.43" width="4.77" height="5.61" transform="matrix(0.13, -0.99, 0.99, 0.13, 73.45, 188.4)" fill="#fff"/><rect x="139.33" y="61.48" width="26.47" height="5.61" transform="translate(68.69 207.08) rotate(-82.45)" fill="#fff"/><rect x="149.05" y="62.76" width="26.48" height="5.61" transform="translate(75.89 217.85) rotate(-82.46)" fill="#fff"/><path d="M182.54,62.89a8.79,8.79,0,0,0-5.65-2.54c-4.31-.54-7.72.69-8.38,5.72l-1.06,8c-.59,4.48,2.69,6.59,6.68,7.08,4.84.57,7.88-1.37,8.27-6.45L176.87,74c-.33,1.63-.36,3.51-2.41,3.13A1.82,1.82,0,0,1,173,74.79l.45-3.43,9.07,1.2.34,0,.75-5.59A5.06,5.06,0,0,0,182.54,62.89Zm-4.48,3.38-.26,1.93L174,67.68l.17-1.29c.18-1.37.73-2.58,2.31-2.37A2,2,0,0,1,178.06,66.27Z" transform="translate(-0.1)" fill="#fff"/><path d="M67.38,79.69c.28-2.13.26-4.13-1-5.92-1.45-2.19-4.85-2.86-7.24-3.17l-7.31-1L48.39,95.88l6.16.81,1.36-10.22c2.32.2,4.77.85,7,.08C65.92,85.63,67,82.53,67.38,79.69ZM61.21,79a4,4,0,0,1-1.12,2.56c-1.09.64-2.4.33-3.56.21l.87-6.58.67.09a8.1,8.1,0,0,1,2.39.53C61.44,76.42,61.34,78,61.21,79Z" transform="translate(-0.1)" fill="#fff"/><path d="M76.78,97.18h.07l-.32,2.41,5.18.69,2.59-19.6L78.74,80,76.88,94a1.55,1.55,0,0,1-1.83,1.43c-1.06-.07-1.2-.91-1.14-1.83l1.85-14-5.56-.74-2.13,16.1c-.36,2.66,1.2,4.36,4.42,4.79A4.61,4.61,0,0,0,76.78,97.18Z" transform="translate(-0.1)" fill="#fff"/><path d="M85.17,100.75l5.18.68.29-2.24h.07a5.22,5.22,0,0,0,4.07,3.46c4.07.4,5.39-3.31,5.82-6.63l.9-6.79c.41-3.08-.19-6.87-3.87-7.35a4.38,4.38,0,0,0-4.45,1.62h-.07l1.1-8.26-5.57-.74ZM91.73,94l.61-4.62c.25-1.89.77-3.39,2.27-3.19s1.34,2.24,1.19,3.4l-.67,5.08C95,95.88,94.75,98,93,97.79,91.6,97.65,91.51,95.64,91.73,94Z" transform="translate(-0.1)" fill="#fff"/><polygon points="102.98 103.12 108.54 103.86 110.17 91.55 112.02 77.61 107.19 76.97 106.46 76.87 102.98 103.12" fill="#fff"/><rect x="116.37" y="78.09" width="4.76" height="5.61" transform="matrix(0.13, -0.99, 0.99, 0.13, 22.94, 188.06)" fill="#fff"/><polygon points="112.75 104.11 112.7 104.41 112.81 104.42 118.27 105.15 118.77 101.35 120.86 85.55 115.39 84.82 115.3 84.81 112.75 104.11" fill="#fff"/><path d="M131.71,86.4c-4.3-.57-7.12.77-7.78,5.81l-1.06,8c-.59,4.47,2.1,6.47,6.09,7,.84.11,1.33.11,1.87.14,2.44.08,4.69-.77,5.75-3.12a22.91,22.91,0,0,0,1.07-4.59l-5.39-.72c-.19,1.47-.25,4.6-2.31,4.33-1.44-.19-1.65-1.29-1.49-2.52l1.07-8.08c.17-1.26.56-2.35,2-2.16a1.46,1.46,0,0,1,1.34,1.43c0,.75-.09,1.52-.09,2.27v.35l5.25.69C139.05,89.87,137.2,87.2,131.71,86.4Z" transform="translate(-0.1)" fill="#fff"/><polygon points="50.42 122.86 53.2 101.86 47.04 101.04 43.56 127.29 54.24 128.7 57.25 129.1 57.44 127.62 57.94 123.85 50.42 122.86" fill="#fff"/><rect x="63.56" y="103.13" width="4.76" height="5.61" transform="matrix(0.13, -0.99, 0.99, 0.13, -47.83, 157.42)" fill="#fff"/><polygon points="62.5 109.86 60.27 126.67 59.9 129.45 65.47 130.19 66.2 124.68 68.06 110.59 62.5 109.86" fill="#fff"/><path d="M85.65,119.18c0-.34.07-.7.09-1.05.14-2.83-.7-5.87-4-6.3a4.37,4.37,0,0,0-4.45,1.62h-.07l1.09-8.26-5.56-.74-2.51,18.89-.94,7.14,0,.22,5.18.68.3-2.24h.06a5.22,5.22,0,0,0,4.07,3.46c4.08.4,5.39-3.31,5.83-6.63l.09-.72Zm-8.24,8.57a1.56,1.56,0,0,1-.3,0c-1.37-.14-1.46-2.15-1.24-3.83l.34-2.56.27-2.06c.25-1.89.77-3.39,2.27-3.19s1.35,2.25,1.19,3.4l-.08.62-.59,4.46c-.12.92-.27,2.32-1,2.91A1.4,1.4,0,0,1,77.41,127.75Z" transform="translate(-0.1)" fill="#fff"/><path d="M96.32,120a8.63,8.63,0,0,1,1.66.36l.84-6.29a4.58,4.58,0,0,0-1,0,3.9,3.9,0,0,0-2,.67A5.49,5.49,0,0,0,94,117.05H94l.24-1.76.16-1.21-5.18-.69-.5,3.76-.94,7.13L86.59,133l5.57.73,1.51-11.43.09-.64C94.08,120.05,94.75,119.81,96.32,120Z" transform="translate(-0.1)" fill="#fff"/><path d="M99.74,120.23c0,.27-.08.54-.11.83l5.57.74c.32-1.63.51-3,2.54-2.76a1.86,1.86,0,0,1,1.48,2.26c-.28,2.1-2.73,2-5.25,2.51s-5.16,1.56-5.75,6a4.91,4.91,0,0,0,4.42,5.92c2.2.3,3.5-.39,5.11-1.74l.15,1.8,5.42.72a6.75,6.75,0,0,1-.16-2.23l1.58-12c.42-3.14-.42-5-3-6.09a14.94,14.94,0,0,0-3.67-.89C103.84,114.75,100.46,116,99.74,120.23Zm8.42,9c-.2,1.26-.78,2.92-2.42,2.7a2,2,0,0,1-1.79-2.37,2.85,2.85,0,0,1,1.63-2.35,28.81,28.81,0,0,1,3-1.06Z" transform="translate(-0.1)" fill="#fff"/><path d="M123.19,120.91h-.07l.39-3-5.18-.69-2.59,19.6,5.56.73,1.6-12.07c.32-1.59,1-1.82,2.56-1.62a10.82,10.82,0,0,1,1.67.36L128,118C125.65,117.64,124.1,118.9,123.19,120.91Z" transform="translate(-0.1)" fill="#fff"/><path d="M138.53,137l5.76-16.3-5.46-.72-3.61,12.41h-.06L135,119.44l-5.6-.74L130.88,137a18.67,18.67,0,0,1,.19,3.4c-.11.78-1.23.95-1.81.76a9.9,9.9,0,0,0-1.07-.28l-.54,4.11v0c.56.07,1.19.34,2.17.47a6.87,6.87,0,0,0,4.11-.49C136.35,143.71,137.05,140.59,138.53,137Z" transform="translate(-0.1)" fill="#fff"/></svg>
